<svg width="2478" height="1109" xmlns="http://www.w3.org/2000/svg" xmlns:xlink="http://www.w3.org/1999/xlink" xml:space="preserve" overflow="hidden"><g transform="translate(-63 -4)"><text fill="#1C63B7" font-family="Arial,Arial_MSFontService,sans-serif" font-weight="700" font-size="527" transform="matrix(1 0 0 1 380.483 676)">SA</text><text fill="#1C63B7" font-family="Arial,Arial_MSFontService,sans-serif" font-weight="700" font-size="527" transform="matrix(1 0 0 1 1112.67 676)">L</text><text fill="#33BDF2" font-family="Arial,Arial_MSFontService,sans-serif" font-weight="700" font-size="303" transform="matrix(1 0 0 1 1413.28 654)">.</text><text fill="#33BDF2" font-family="Arial,Arial_MSFontService,sans-serif" font-weight="700" font-size="303" transform="matrix(1 0 0 1 1497.5 654)">Inha</text><path d="M400.5 673.5 2131.36 673.5" stroke="#1C63B7" stroke-width="20.625" stroke-miterlimit="8" fill="none" fill-rule="evenodd"/><text fill="#1C63B7" font-family="Arial,Arial_MSFontService,sans-serif" font-weight="700" font-size="128" transform="matrix(1 0 0 1 395.782 815)">S</text><text fill="#00B0F0" font-family="Arial,Arial_MSFontService,sans-serif" font-weight="400" font-size="128" transform="matrix(1 0 0 1 481.146 815)">ubsurface</text><text fill="#1C63B7" font-family="Arial,Arial_MSFontService,sans-serif" font-weight="700" font-size="128" transform="matrix(1 0 0 1 1081.56 815)">A</text><text fill="#00B0F0" font-family="Arial,Arial_MSFontService,sans-serif" font-weight="400" font-size="128" transform="matrix(1 0 0 1 1174.38 815)">nalysis</text><text fill="#1C63B7" font-family="Arial,Arial_MSFontService,sans-serif" font-weight="700" font-size="128" transform="matrix(1 0 0 1 1602.92 815)">L</text><text fill="#00B0F0" font-family="Arial,Arial_MSFontService,sans-serif" font-weight="400" font-size="128" transform="matrix(1 0 0 1 1681.41 815)">ab</text><text fill="#00B0F0" font-family="Malgun Gothic,Malgun Gothic_MSFontService,sans-serif" font-weight="400" font-size="73" transform="matrix(1 0 0 1 1447.13 920)">지하유체공학연구실</text></g></svg>